<?xml version="1.0" encoding="utf-8"?>
<!-- Generator: Adobe Illustrator 23.0.4, SVG Export Plug-In . SVG Version: 6.00 Build 0)  -->
<svg version="1.1" id="Layer_1" xmlns="http://www.w3.org/2000/svg" xmlns:xlink="http://www.w3.org/1999/xlink" x="0px" y="0px"
	 viewBox="0 0 780.9 117.2" style="enable-background:new 0 0 780.9 117.2;" xml:space="preserve">
<style type="text/css">
	.st0{fill:url(#SVGID_1_);}
	.st1{fill:url(#SVGID_2_);}
	.st2{fill:url(#SVGID_3_);}
	.st3{fill:url(#SVGID_4_);}
	.st4{fill:url(#SVGID_5_);}
	.st5{fill:url(#SVGID_6_);}
	.st6{fill:url(#SVGID_7_);}
	.st7{fill:url(#SVGID_8_);}
	.st8{fill:url(#SVGID_9_);}
	.st9{fill:url(#SVGID_10_);}
</style>
<title>CLOUDVIRGA_2019</title>
<linearGradient id="SVGID_1_" gradientUnits="userSpaceOnUse" x1="6.2599" y1="37.227" x2="805.9099" y2="22.287" gradientTransform="matrix(1 0 0 -1 -5.87 110.63)">
	<stop  offset="0" style="stop-color:#00B6E5"/>
	<stop  offset="0.51" style="stop-color:#096594"/>
	<stop  offset="1" style="stop-color:#6DA943"/>
</linearGradient>
<path class="st0" d="M63.8,89v0.4c0,17.8-12.1,27.8-31.6,27.8C12.4,117.2,0,106.4,0,87.1V60.9c0-19.4,12.4-30.1,32.4-30.1
	c19.3,0,31.4,10,31.4,27.7V59h-10v-0.5c0-12-8.2-19.1-21.5-19.1c-14,0-22.4,7.8-22.4,21.5v26.2c0,13.7,8.4,21.5,22.3,21.5
	c13.4,0,21.6-7.1,21.6-19.2V89L63.8,89z"/>
<linearGradient id="SVGID_2_" gradientUnits="userSpaceOnUse" x1="6.28" y1="38.3412" x2="805.9299" y2="23.4012" gradientTransform="matrix(1 0 0 -1 -5.87 110.63)">
	<stop  offset="0" style="stop-color:#00B6E5"/>
	<stop  offset="0.51" style="stop-color:#096594"/>
	<stop  offset="1" style="stop-color:#6DA943"/>
</linearGradient>
<path class="st1" d="M86.7,32h10v75.4H141v8.6H86.7V32z"/>
<linearGradient id="SVGID_3_" gradientUnits="userSpaceOnUse" x1="6.31" y1="40.189" x2="805.9699" y2="25.259" gradientTransform="matrix(1 0 0 -1 -5.87 110.63)">
	<stop  offset="0" style="stop-color:#00B6E5"/>
	<stop  offset="0.51" style="stop-color:#096594"/>
	<stop  offset="1" style="stop-color:#6DA943"/>
</linearGradient>
<path class="st2" d="M223.6,87.1c0,19.3-12.4,30.1-32.6,30.1c-20,0-32.4-10.8-32.4-30.1V60.9c0-19.4,12.4-30.1,32.6-30.1
	c20,0,32.4,10.7,32.4,30.1L223.6,87.1z M213.6,60.9c0-13.7-8.4-21.5-22.4-21.5c-14.3,0-22.7,7.8-22.7,21.5v26.2
	c0,13.7,8.4,21.5,22.4,21.5c14.3,0,22.7-7.8,22.7-21.5L213.6,60.9z"/>
<linearGradient id="SVGID_4_" gradientUnits="userSpaceOnUse" x1="6.3403" y1="41.5269" x2="805.9902" y2="26.5869" gradientTransform="matrix(1 0 0 -1 -5.87 110.63)">
	<stop  offset="0" style="stop-color:#00B6E5"/>
	<stop  offset="0.51" style="stop-color:#096594"/>
	<stop  offset="1" style="stop-color:#6DA943"/>
</linearGradient>
<path class="st3" d="M309.5,32v56.2c0,18.7-11.9,29-31.3,29s-31.2-10.3-31.2-29V32h9.8v56.2c0,13,8,20.4,21.4,20.4
	s21.5-7.4,21.5-20.4V32H309.5z"/>
<linearGradient id="SVGID_5_" gradientUnits="userSpaceOnUse" x1="6.3701" y1="43.1674" x2="806.0202" y2="28.2274" gradientTransform="matrix(1 0 0 -1 -5.87 110.63)">
	<stop  offset="0" style="stop-color:#00B6E5"/>
	<stop  offset="0.51" style="stop-color:#096594"/>
	<stop  offset="1" style="stop-color:#6DA943"/>
</linearGradient>
<path class="st4" d="M397.1,86.2c0,19.2-12.4,29.8-32.6,29.8h-30V32h30.2c20,0,32.4,10.6,32.4,29.6L397.1,86.2z M387.1,61.6
	c0-13.4-8.4-21-22.4-21h-20.3v66.7h20c14.3,0,22.7-7.7,22.7-21.1L387.1,61.6z"/>
<linearGradient id="SVGID_6_" gradientUnits="userSpaceOnUse" x1="6.7099" y1="61.3971" x2="806.3599" y2="46.4671" gradientTransform="matrix(1 0 0 -1 -5.87 110.63)">
	<stop  offset="0" style="stop-color:#00B6E5"/>
	<stop  offset="0.51" style="stop-color:#096594"/>
	<stop  offset="1" style="stop-color:#6DA943"/>
</linearGradient>
<path class="st5" d="M412.6,32h10.8l26.4,71.8L487.3,0h9.8l-42,116h-11.5L412.6,32z"/>
<linearGradient id="SVGID_7_" gradientUnits="userSpaceOnUse" x1="6.42" y1="46.1691" x2="806.08" y2="31.2291" gradientTransform="matrix(1 0 0 -1 -5.87 110.63)">
	<stop  offset="0" style="stop-color:#00B6E5"/>
	<stop  offset="0.51" style="stop-color:#096594"/>
	<stop  offset="1" style="stop-color:#6DA943"/>
</linearGradient>
<path class="st6" d="M506.1,32h10v84h-10V32z"/>
<linearGradient id="SVGID_8_" gradientUnits="userSpaceOnUse" x1="6.4404" y1="47.061" x2="806.1003" y2="32.131" gradientTransform="matrix(1 0 0 -1 -5.87 110.63)">
	<stop  offset="0" style="stop-color:#00B6E5"/>
	<stop  offset="0.51" style="stop-color:#096594"/>
	<stop  offset="1" style="stop-color:#6DA943"/>
</linearGradient>
<path class="st7" d="M541,32h33.4c16.3,0,26.9,8,26.9,26c0,13.6-5.9,21.5-15.7,24.6l16.3,33.3h-11.5l-15-31.8H551v31.8h-10L541,32z
	 M551,75.6h23.1c10.3,0,16.9-5.2,16.9-17.5s-6.7-17.4-16.9-17.4H551L551,75.6z"/>
<linearGradient id="SVGID_9_" gradientUnits="userSpaceOnUse" x1="6.4696" y1="48.8264" x2="806.1296" y2="33.8964" gradientTransform="matrix(1 0 0 -1 -5.87 110.63)">
	<stop  offset="0" style="stop-color:#00B6E5"/>
	<stop  offset="0.51" style="stop-color:#096594"/>
	<stop  offset="1" style="stop-color:#6DA943"/>
</linearGradient>
<path class="st8" d="M677.2,89.4v-7.4h-26.4v-8.6h36.3V116h-7.4l-1.2-8.8c-5,6.5-13.4,10-24.6,10c-19.2,0-30.6-10.6-30.6-30.1v-26
	c0-19.9,12.4-30.4,32.4-30.4c19.1,0,31.4,8.8,31.4,26.2v0.8h-10V57c0-11.2-8.2-17.5-21.5-17.5c-14,0-22.4,7.4-22.4,21.7v25.9
	c0,13.7,8.4,21.5,22.3,21.5C669.1,108.6,677.2,101.5,677.2,89.4z"/>
<linearGradient id="SVGID_10_" gradientUnits="userSpaceOnUse" x1="6.5001" y1="50.2351" x2="806.16" y2="35.2951" gradientTransform="matrix(1 0 0 -1 -5.87 110.63)">
	<stop  offset="0" style="stop-color:#00B6E5"/>
	<stop  offset="0.51" style="stop-color:#096594"/>
	<stop  offset="1" style="stop-color:#6DA943"/>
</linearGradient>
<path class="st9" d="M780.9,116h-10.7l-7.9-21.6h-37.8l-7.9,21.6h-9.8l31.1-84h12.1L780.9,116z M727.1,85.8h32.4l-16.2-43.2
	L727.1,85.8z"/>
</svg>
